<svg width="18" height="19" viewBox="0 0 18 19" fill="none" xmlns="http://www.w3.org/2000/svg">
<g clip-path="url(#clip0_1310_32306)">
<path d="M9.00005 0.107422C4.02951 0.107422 0 4.13693 0 9.10748C0 13.5655 3.2447 17.2574 7.49902 17.9724V10.9851H5.32795V8.47071H7.49902V6.61668C7.49902 4.46546 8.81292 3.29318 10.7322 3.29318C11.6515 3.29318 12.4414 3.36167 12.6708 3.39184V5.64043L11.3396 5.64108C10.296 5.64108 10.0948 6.13687 10.0948 6.86468V8.46942H12.5849L12.2601 10.9838H10.0948V18.0325C14.5478 17.4905 18 13.7045 18 9.1049C18 4.13693 13.9705 0.107422 9.00005 0.107422Z" fill="#011A27"/>
</g>
<defs>
<clipPath id="clip0_1310_32306">
<rect width="18" height="18" fill="white" transform="translate(0 0.0703125)"/>
</clipPath>
</defs>
</svg>
