<svg width="38" height="38" viewBox="0 0 38 38" fill="none" xmlns="http://www.w3.org/2000/svg">
<path d="M27.7078 9.5L25.0278 9.88285C23.3858 10.1174 22.1661 11.5238 22.1661 13.1825V13.2223C22.1661 13.3794 22.1791 13.5362 22.2049 13.6912C22.5521 15.7743 20.5941 17.4993 18.5714 16.8925L17.2565 16.498C15.9402 16.1031 14.5203 16.6144 13.758 17.7579C13.5593 18.056 13.4133 18.386 13.3264 18.7336L12.666 21.3751" stroke="#B3E4FB" stroke-width="3.95836" stroke-linecap="round" stroke-linejoin="round"/>
<path d="M27.7077 29.2917C24.415 27.7803 22.4901 26.3658 22.166 23.75" stroke="#B3E4FB" stroke-width="3.95836" stroke-linecap="round" stroke-linejoin="round"/>
<path d="M33.2502 19.0001C33.2502 26.8702 26.8702 33.2502 19.0001 33.2502C11.13 33.2502 4.75 26.8702 4.75 19.0001C4.75 11.13 11.13 4.75 19.0001 4.75C26.8702 4.75 33.2502 11.13 33.2502 19.0001Z" stroke="#043B56" stroke-width="3.95836"/>
</svg>
