<svg width="18" height="19" viewBox="0 0 18 19" fill="none" xmlns="http://www.w3.org/2000/svg">
<g clip-path="url(#clip0_1310_32294)">
<path d="M13.4997 0.0703125H4.49989C2.02517 0.0703125 0 2.09548 0 4.5702V13.5704C0 16.0445 2.02517 18.0703 4.49989 18.0703H13.4997C15.9744 18.0703 17.9996 16.0445 17.9996 13.5704V4.5702C17.9996 2.09548 15.9744 0.0703125 13.4997 0.0703125ZM16.4995 13.5704C16.4995 15.2241 15.1543 16.5703 13.4997 16.5703H4.49989C2.84596 16.5703 1.50004 15.2241 1.50004 13.5704V4.5702C1.50004 2.91605 2.84596 1.57035 4.49989 1.57035H13.4997C15.1543 1.57035 16.4995 2.91605 16.4995 4.5702V13.5704Z" fill="#011A27"/>
<path d="M13.875 5.32026C14.4963 5.32026 14.9999 4.81659 14.9999 4.19528C14.9999 3.57398 14.4963 3.07031 13.875 3.07031C13.2537 3.07031 12.75 3.57398 12.75 4.19528C12.75 4.81659 13.2537 5.32026 13.875 5.32026Z" fill="#011A27"/>
<path d="M8.99989 4.57031C6.51414 4.57031 4.5 6.58467 4.5 9.0702C4.5 11.5548 6.51414 13.5705 8.99989 13.5705C11.4849 13.5705 13.4998 11.5548 13.4998 9.0702C13.4998 6.58467 11.4849 4.57031 8.99989 4.57031ZM8.99989 12.0705C7.34324 12.0705 6.00004 10.7273 6.00004 9.0702C6.00004 7.41311 7.34324 6.07035 8.99989 6.07035C10.6565 6.07035 11.9997 7.41311 11.9997 9.0702C11.9997 10.7273 10.6565 12.0705 8.99989 12.0705Z" fill="#011A27"/>
</g>
<defs>
<clipPath id="clip0_1310_32294">
<rect width="18" height="18" fill="white" transform="translate(0 0.0703125)"/>
</clipPath>
</defs>
</svg>
