<svg width="38" height="38" viewBox="0 0 38 38" fill="none" xmlns="http://www.w3.org/2000/svg">
<g clip-path="url(#clip0_1426_39994)">
<path d="M4.75 32.0625C4.75 30.095 6.34498 28.5 8.31249 28.5H20.1875C22.155 28.5 23.75 30.095 23.75 32.0625C23.75 32.7183 23.2183 33.25 22.5625 33.25H5.9375C5.28166 33.25 4.75 32.7183 4.75 32.0625Z" fill="#043B56"/>
<path d="M7.91602 28.8955C7.91602 26.928 9.511 25.333 11.4785 25.333H17.0202C18.9877 25.333 20.5827 26.928 20.5827 28.8955C20.5827 29.5513 20.051 30.083 19.3952 30.083H9.10351C8.44768 30.083 7.91602 29.5513 7.91602 28.8955Z" fill="#B3E4FB"/>
<path d="M23.9531 15.4727L32.4821 25.8834C33.3133 26.898 33.1646 28.3944 32.15 29.2257C31.1353 30.0569 29.6389 29.9082 28.8077 28.8936L20.2788 18.4829L23.9531 15.4727Z" fill="#043B56"/>
<rect x="8.24414" y="15.0371" width="3.16666" height="9.49998" rx="1.58333" transform="rotate(-39.3259 8.24414 15.0371)" fill="#043B56"/>
<path d="M13.71 14.2144C13.2729 13.6808 13.227 12.9212 13.6264 12.3588C15.2226 10.111 16.6778 8.91112 19.2529 7.75298C19.8842 7.46902 20.6234 7.66249 21.0621 8.198L23.5423 11.2254C23.9632 11.7392 24.0254 12.4668 23.6517 13.0159C22.1424 15.233 20.4955 16.3821 17.9965 17.588C17.3511 17.8995 16.5785 17.7157 16.1244 17.1614L13.71 14.2144Z" fill="#B3E4FB"/>
<rect x="20.4922" y="5.00293" width="3.16666" height="9.49998" rx="1.58333" transform="rotate(-39.3259 20.4922 5.00293)" fill="#043B56"/>
</g>
<defs>
<clipPath id="clip0_1426_39994">
<rect width="37.9999" height="37.9999" fill="white"/>
</clipPath>
</defs>
</svg>
