<svg width="18" height="19" viewBox="0 0 18 19" fill="none" xmlns="http://www.w3.org/2000/svg">
<g clip-path="url(#clip0_1310_32315)">
<path d="M15.5455 0.0703125H2.45455C1.80356 0.0703125 1.17924 0.328916 0.71892 0.789232C0.258603 1.24955 0 1.87387 0 2.52486L0 15.6158C0 16.2668 0.258603 16.8911 0.71892 17.3514C1.17924 17.8117 1.80356 18.0703 2.45455 18.0703H15.5455C16.1964 18.0703 16.8208 17.8117 17.2811 17.3514C17.7414 16.8911 18 16.2668 18 15.6158V2.52486C18 1.87387 17.7414 1.24955 17.2811 0.789232C16.8208 0.328916 16.1964 0.0703125 15.5455 0.0703125V0.0703125ZM6.13636 14.3149C6.1365 14.3648 6.12678 14.4142 6.10777 14.4604C6.08877 14.5065 6.06084 14.5485 6.02559 14.5838C5.99035 14.6192 5.94847 14.6472 5.90237 14.6663C5.85627 14.6855 5.80685 14.6953 5.75693 14.6953H4.14C4.09 14.6954 4.04047 14.6857 3.99425 14.6666C3.94803 14.6476 3.90603 14.6195 3.87068 14.5842C3.83532 14.5488 3.8073 14.5068 3.78823 14.4606C3.76916 14.4144 3.75941 14.3649 3.75955 14.3149V7.53622C3.75955 7.43532 3.79963 7.33855 3.87098 7.2672C3.94233 7.19585 4.0391 7.15577 4.14 7.15577H5.75693C5.85766 7.15604 5.95416 7.19624 6.02529 7.26756C6.09642 7.33888 6.13636 7.4355 6.13636 7.53622V14.3149ZM4.94795 6.51349C4.64454 6.51349 4.34794 6.42352 4.09566 6.25495C3.84338 6.08639 3.64675 5.84679 3.53064 5.56647C3.41453 5.28616 3.38415 4.9777 3.44334 4.68012C3.50253 4.38253 3.64864 4.10918 3.86319 3.89464C4.07773 3.68009 4.35108 3.53398 4.64867 3.47479C4.94625 3.4156 5.25471 3.44598 5.53503 3.56209C5.81534 3.6782 6.05494 3.87483 6.2235 4.12711C6.39207 4.37939 6.48205 4.67599 6.48205 4.9794C6.48205 5.38627 6.32042 5.77647 6.03272 6.06417C5.74502 6.35187 5.35482 6.51349 4.94795 6.51349ZM14.5882 14.3414C14.5883 14.3874 14.5794 14.433 14.5618 14.4755C14.5443 14.518 14.5185 14.5566 14.486 14.5891C14.4535 14.6216 14.4149 14.6473 14.3724 14.6649C14.3299 14.6824 14.2844 14.6914 14.2384 14.6912H12.4998C12.4538 14.6914 12.4083 14.6824 12.3658 14.6649C12.3233 14.6473 12.2847 14.6216 12.2521 14.5891C12.2196 14.5566 12.1939 14.518 12.1763 14.4755C12.1588 14.433 12.1499 14.3874 12.15 14.3414V11.1659C12.15 10.6913 12.2891 9.0877 10.9094 9.0877C9.84068 9.0877 9.62284 10.1851 9.57989 10.678V14.3455C9.5799 14.4374 9.54375 14.5256 9.47925 14.5911C9.41476 14.6565 9.3271 14.694 9.23523 14.6953H7.55591C7.51002 14.6953 7.46459 14.6863 7.42221 14.6687C7.37983 14.6511 7.34134 14.6253 7.30894 14.5928C7.27655 14.5603 7.25088 14.5217 7.23341 14.4793C7.21595 14.4369 7.20702 14.3914 7.20716 14.3455V7.50656C7.20702 7.46068 7.21595 7.41522 7.23341 7.37279C7.25088 7.33036 7.27655 7.29179 7.30894 7.2593C7.34134 7.2268 7.37983 7.20102 7.42221 7.18343C7.46459 7.16584 7.51002 7.15679 7.55591 7.15679H9.23523C9.32799 7.15679 9.41696 7.19364 9.48255 7.25924C9.54815 7.32483 9.585 7.4138 9.585 7.50656V8.0977C9.98182 7.50145 10.5699 7.04327 11.8248 7.04327C14.6045 7.04327 14.5861 9.63895 14.5861 11.0646L14.5882 14.3414Z" fill="#011A27"/>
</g>
<defs>
<clipPath id="clip0_1310_32315">
<rect width="18" height="18" fill="white" transform="translate(0 0.0703125)"/>
</clipPath>
</defs>
</svg>
