<svg width="141" height="32" viewBox="0 0 141 32" fill="none" xmlns="http://www.w3.org/2000/svg">
<g clip-path="url(#clip0_1233_44336)">
<path d="M56.4967 10.8736L55.0997 10.1648L51.013 18.3173L46.9263 10.1648L45.5293 10.8736L51.013 21.7786L56.4967 10.8736ZM69.1726 14.2932L69.1518 14.189C68.8807 13.3341 68.4221 12.5626 67.7756 11.9162C66.8791 11.0196 65.7323 10.4775 64.4812 10.3316H64.3978C64.231 10.3107 64.0643 10.2899 63.8765 10.2899C62.3962 10.2899 61.0201 10.8736 59.9776 11.9162C58.935 12.9587 58.372 14.3349 58.372 15.8152C58.372 17.2748 58.935 18.651 59.9776 19.6935C61.0201 20.736 62.3962 21.299 63.8557 21.3199H63.9391C64.5438 21.299 65.1693 21.1947 65.7531 20.9654C67.1501 20.465 68.2344 19.4433 68.8599 18.1089C68.9641 17.8587 69.0684 17.6084 69.1518 17.3582L67.6297 16.9412C67.4212 17.6501 67.0041 18.2757 66.462 18.7552C66.0868 19.068 65.6697 19.3182 65.2111 19.5059C63.3136 20.1939 61.2077 19.3391 60.332 17.5459L60.2903 17.4625C60.3111 17.4834 60.332 17.5042 60.332 17.5459L66.754 15.1689L67.6297 14.8561L69.0058 14.3558L69.1726 14.2932ZM59.9358 15.9821V16.0655L59.915 15.9821C59.8524 14.314 60.8533 12.7294 62.4796 12.1247C63.2094 11.8537 63.9599 11.8119 64.669 11.9579C65.5863 12.1664 66.3995 12.6668 66.9625 13.3967L59.9358 15.9821ZM80.2797 16.6493C80.0087 16.2323 79.6125 15.8778 79.112 15.6276C78.2781 15.1689 77.2355 14.9813 76.2347 14.7936C75.4215 14.6477 74.65 14.5017 74.1288 14.2514C73.7535 14.0846 73.5449 13.8762 73.5449 13.4591V13.4175C73.5449 12.792 74.087 12.5418 74.2748 12.4374C74.796 12.1247 75.5674 11.9579 76.3598 11.9579C77.1521 11.9579 77.9027 12.1247 78.4031 12.4374C78.5908 12.5418 78.987 12.8545 79.1328 13.5009L80.655 13.0839C80.5299 12.2707 80.0087 11.5617 79.1954 11.0822C78.4239 10.6443 77.4232 10.415 76.3598 10.415C75.2755 10.415 74.2747 10.6443 73.5033 11.0822C72.6692 11.5617 72.0853 12.4792 72.0853 13.4383C72.0853 13.9804 72.2105 14.4392 72.5024 14.8353C72.7526 15.1689 72.982 15.44 73.4407 15.6484C74.1496 16.003 75.0671 16.1697 75.9636 16.3365C78.1737 16.7327 79.2163 17.0663 79.2163 18.3173C79.1746 18.9012 78.6742 19.1931 78.4865 19.2973C77.9653 19.5893 77.1938 19.7561 76.4015 19.7561C75.63 19.7561 74.8794 19.5893 74.3582 19.2973C74.1704 19.1931 73.7743 18.922 73.5867 18.2339L72.1063 18.6301C72.2313 19.4433 72.7318 20.1522 73.5867 20.6318C74.3372 21.0697 75.3381 21.3199 76.4015 21.3199C77.4858 21.3199 78.4865 21.0697 79.258 20.6318C80.238 20.0897 80.7592 19.2556 80.7592 18.2757V18.2548C80.7592 17.6293 80.5924 17.0872 80.2797 16.6493ZM84.1824 20.8611L84.2032 21.3407L85.7253 21.0071V11.6243L84.1824 11.2698V20.8611ZM86.0589 7.05801C86.0589 6.47419 85.5794 5.99463 84.9747 5.99463C84.37 5.99463 83.8904 6.47419 83.8904 7.05801C83.8904 7.66268 84.37 8.14224 84.9747 8.14224C85.5794 8.14224 86.0589 7.66268 86.0589 7.05801Z" fill="#3BB75E"/>
<path d="M98.1756 16.9426C97.696 18.5482 96.1948 19.7158 94.4434 19.7158C92.2957 19.7158 90.5443 17.9643 90.5443 15.8167C90.5443 13.6691 92.2957 11.9176 94.4434 11.9176C96.174 11.9176 97.6544 13.0645 98.1547 14.6283L99.6768 14.2112C99.4266 13.3772 98.9679 12.5849 98.3215 11.9385C97.279 10.9168 95.9029 10.333 94.4434 10.333C92.9838 10.333 91.6076 10.9168 90.5859 11.9385C89.5434 12.9811 88.9805 14.3572 88.9805 15.8167C88.9805 17.2762 89.5434 18.6524 90.5859 19.6741C91.6076 20.7167 92.9838 21.2796 94.4434 21.2796C95.9029 21.2796 97.279 20.7167 98.3215 19.6741C98.9679 19.0277 99.4474 18.2354 99.6977 17.3597L98.1756 16.9426ZM112.155 10.479V12.2722L111.841 11.9176C110.799 10.8751 109.402 10.3122 107.943 10.3122C106.462 10.3122 105.086 10.8751 104.044 11.9176C103.001 12.9601 102.438 14.3363 102.438 15.8167C102.438 17.2762 103.001 18.6732 104.044 19.7158C105.086 20.7375 106.462 21.3213 107.943 21.3213C109.402 21.3213 110.799 20.7375 111.841 19.7158L112.155 19.3613V21.4464L113.74 21.2379V10.896L112.155 10.479ZM107.943 19.7366C105.774 19.7366 104.023 17.9643 104.023 15.8167C104.023 13.6482 105.774 11.8968 107.943 11.8968C110.091 11.8968 111.863 13.6482 111.863 15.8167C111.863 17.9643 110.091 19.7366 107.943 19.7366ZM125.666 16.6508C125.395 16.2337 124.999 15.8793 124.499 15.629C123.665 15.1704 122.621 14.9827 121.621 14.7951C120.808 14.6491 120.037 14.5031 119.515 14.2529C119.14 14.0861 118.932 13.8776 118.932 13.4606V13.4189C118.932 12.7934 119.474 12.5432 119.662 12.4389C120.182 12.1262 120.953 11.9594 121.746 11.9594C122.538 11.9594 123.29 12.1262 123.79 12.4389C123.977 12.5432 124.373 12.8559 124.52 13.5023L126.041 13.0853C125.917 12.2722 125.395 11.5631 124.581 11.0836C123.81 10.6458 122.809 10.4164 121.746 10.4164C120.662 10.4164 119.662 10.6458 118.889 11.0836C118.055 11.5631 117.472 12.4806 117.472 13.4397C117.472 13.9818 117.596 14.4406 117.889 14.8367C118.139 15.1704 118.369 15.4414 118.827 15.6499C119.536 16.0044 120.453 16.1711 121.35 16.3379C123.56 16.7342 124.603 17.0678 124.603 18.3188C124.561 18.9026 124.061 19.1945 123.873 19.2987C123.351 19.5907 122.58 19.7575 121.787 19.7575C121.016 19.7575 120.266 19.5907 119.744 19.2987C119.556 19.1945 119.16 18.9235 118.973 18.2354L117.492 18.6316C117.618 19.4447 118.118 20.1536 118.973 20.6332C119.723 21.0711 120.724 21.3213 121.787 21.3213C122.872 21.3213 123.873 21.0711 124.644 20.6332C125.625 20.0912 126.145 19.2571 126.145 18.2771V18.2562C126.145 17.6307 125.978 17.0886 125.666 16.6508ZM130.904 15.7125C130.986 13.6066 132.301 12.1262 134.426 12.1262C136.533 12.1262 137.846 13.6274 137.93 15.7125V21.4881L139.557 21.2796V15.8793C139.557 14.3989 138.994 13.0019 137.95 11.9594C136.887 10.9168 135.907 10.5207 134.426 10.5207C132.78 10.5207 130.986 11.7717 130.904 11.8551V5.6416L129.277 6.05861V21.2796L130.904 21.4881V15.7125Z" fill="#043B56"/>
<path d="M37.5279 10.2644C33.406 9.02248 29.9378 9.78676 27.6718 13.6472C26.1878 16.177 26.4994 19.6945 28.9563 22.1679L27.5184 24.1856C25.5244 22.5243 24.1901 18.8032 25.1631 15.4327C26.2559 11.6525 29.3502 9.34443 32.64 9.0435C34.9857 8.82855 37.2057 9.45812 37.5279 10.2644Z" fill="#043B56"/>
<path d="M41.6487 2.45335C41.5597 2.53073 41.5597 2.51735 41.4831 2.50589C41.3387 2.47958 41.1989 2.43295 41.0677 2.36738C38.8124 1.3453 36.4385 0.821832 33.9766 0.941235C27.8255 1.23735 23.1026 3.98171 20.0011 9.36534C18.6448 11.7191 17.9503 14.3945 17.991 17.1093C18.0216 20.8213 19.0162 24.3538 21.3881 27.2672C22.0582 28.0916 22.7915 28.955 23.6395 29.6495C23.0853 30.5445 22.6689 31.0441 21.9711 31.9946C20.4299 29.4155 18.4294 27.3369 17.3621 24.6527C16.244 21.8875 15.8318 18.8884 16.1626 15.9249C16.4946 12.6628 17.7532 9.56316 19.7906 6.99066C22.42 3.63878 25.8134 1.48666 30.0146 0.61837C31.2696 0.357593 32.5417 0.178012 33.8205 0.221952C36.3754 0.309832 38.8364 0.845713 41.1328 2.01013C41.3337 2.11234 41.6487 2.35496 41.6487 2.45335Z" fill="#043B56"/>
<path d="M39.1863 7.72853C39.7587 8.2399 38.8218 7.77832 38.8218 7.77832C37.1005 6.97984 35.1989 6.65434 33.3112 6.83507C31.348 6.99538 29.4734 7.72462 27.9153 8.93419C26.0023 10.4118 24.7364 12.3261 24.1716 14.68C23.4341 17.7559 24.0266 20.5722 25.8716 23.131C26.2609 23.6711 26.7484 24.1211 27.2264 24.6632C26.6845 25.3585 26.3001 26.0795 25.7515 26.68C21.6911 23.1367 20.2609 16.0178 24.3748 10.6273C28.337 5.43981 35.2956 4.99259 39.1863 7.72853Z" fill="#043B56"/>
<path d="M35.8637 12.5633C36.5944 13.2937 35.5439 12.8007 35.2984 12.774C34.137 12.6453 33.0206 12.7054 31.9452 13.2955C29.9978 14.3662 29.0227 17.0644 30.2729 19.2021C30.3837 19.3928 30.5069 19.5739 30.6492 19.797L29.2319 21.7992C28.2605 20.6758 27.739 19.2337 27.7677 17.7498C27.7965 16.2659 28.3734 14.845 29.3876 13.7598C31.1439 11.8444 34.1485 11.4087 35.8637 12.5633Z" fill="#043B56"/>
<path d="M40.4566 5.07149C41.0807 5.68745 40.1698 5.16699 40.0227 5.09441C37.9445 4.1269 35.653 3.70769 33.3667 3.87681C30.6637 4.0764 28.2055 4.99318 26.0655 6.6644C23.6436 8.55526 22.0208 10.9981 21.3249 13.9967C20.3596 18.1471 21.2025 21.9097 23.8769 25.2522C24.37 25.8691 24.9377 26.4076 25.558 26.9883C25.0285 27.7246 24.543 28.3931 24.0555 29.0663C18.6201 24.4709 16.9083 15.4197 22.1229 8.74816C27.1694 2.2925 35.651 1.92005 40.4566 5.07149Z" fill="#043B56"/>
<path d="M10.8522 11.174C12.0807 12.9546 13.3015 14.741 14.5425 16.5129C14.7973 16.8442 14.9271 17.2541 14.9091 17.671C14.8468 19.073 15.0157 20.4605 15.2931 21.8375L15.1529 21.9092C10.1314 14.654 5.11273 7.39871 0 0.00765021C1.03752 0.00765021 1.92531 0.0229506 2.81215 0" fill="#3BB75E"/>
<path d="M15.7174 6.70669L17.1372 8.77447C16.6665 9.65603 16.3094 10.5653 15.8856 11.6054C13.2178 7.7191 10.6085 3.9178 7.91797 0C9.00068 0 9.94971 0 10.8978 0" fill="#3BB75E"/>
<path d="M18.9807 5.84479C18.0864 7.02118 17.9585 7.33031 17.4068 8.13461L11.8223 0.00858686C12.8789 0.00858686 13.7875 0.0276688 14.6932 0" fill="#3BB75E"/>
<path d="M19.0572 0.108887C19.4833 0.697783 19.8215 1.10541 20.1798 1.63004C20.5801 2.21318 20.9738 2.80112 21.3674 3.38426C20.647 3.92136 20.0995 4.58028 19.4337 5.20658L15.9443 0.121355" fill="#3BB75E"/>
<path d="M12.5946 8.09571C13.4939 9.4125 14.3819 10.7369 15.2956 12.0423C15.4935 12.3289 15.5659 12.5487 15.463 12.9108C15.1871 13.8922 14.9682 14.8908 14.7721 15.9438L3.9043 0.0545526C4.95977 -0.0410049 5.92672 0.0182409 6.88988 0.0172852" fill="#3BB75E"/>
</g>
<defs>
<clipPath id="clip0_1233_44336">
<rect width="141" height="31.9961" fill="white"/>
</clipPath>
</defs>
</svg>
