<svg width="18" height="16" viewBox="0 0 18 16" fill="none" xmlns="http://www.w3.org/2000/svg">
<path d="M18 2.48919C17.3306 2.78281 16.6174 2.97744 15.8737 3.07194C16.6388 2.61519 17.2226 1.89744 17.4971 1.03231C16.7839 1.45756 15.9964 1.75794 15.1571 1.92556C14.4799 1.20444 13.5146 0.757812 12.4616 0.757812C10.4186 0.757812 8.77387 2.41606 8.77387 4.44894C8.77387 4.74144 8.79862 5.02269 8.85938 5.29044C5.7915 5.14081 3.07687 3.67044 1.25325 1.43056C0.934875 1.98294 0.748125 2.61519 0.748125 3.29581C0.748125 4.57381 1.40625 5.70669 2.38725 6.36256C1.79437 6.35131 1.21275 6.17919 0.72 5.90806C0.72 5.91931 0.72 5.93394 0.72 5.94856C0.72 7.74181 1.99912 9.23131 3.6765 9.57444C3.37612 9.65656 3.04875 9.69594 2.709 9.69594C2.47275 9.69594 2.23425 9.68244 2.01038 9.63294C2.4885 11.0943 3.84525 12.1687 5.4585 12.2036C4.203 13.1857 2.60888 13.7774 0.883125 13.7774C0.5805 13.7774 0.29025 13.7639 0 13.7268C1.63462 14.7809 3.57188 15.3828 5.661 15.3828C12.4515 15.3828 16.164 9.75781 16.164 4.88206C16.164 4.71894 16.1584 4.56144 16.1505 4.40506C16.8829 3.88531 17.4982 3.23619 18 2.48919Z" fill="#3AB75D"/>
</svg>
