<svg width="24" height="25" viewBox="0 0 24 25" fill="none" xmlns="http://www.w3.org/2000/svg">
<g clip-path="url(#clip0_1310_32360)">
<rect y="0.0703125" width="24" height="24" rx="12" fill="white"/>
<g clip-path="url(#clip1_1310_32360)">
<rect y="0.0703125" width="40.6154" height="24" rx="1.84615" fill="white"/>
<rect y="0.0703125" width="40.6154" height="24" rx="1.84615" fill="white"/>
<path d="M16.6152 0.0703125L38.7691 0.0703125C39.7887 0.0703125 40.6152 0.896864 40.6152 1.91647L16.6152 1.91647V0.0703125Z" fill="#B33639"/>
<rect x="16.6152" y="3.7627" width="24" height="1.84615" fill="#B33639"/>
<rect x="16.6152" y="7.45508" width="24" height="1.84615" fill="#B33639"/>
<rect x="16.6152" y="11.1475" width="24" height="1.84615" fill="#B33639"/>
<rect y="14.8398" width="40.6154" height="1.84615" fill="#B33639"/>
<rect y="18.5312" width="40.6154" height="1.84615" fill="#B33639"/>
<path d="M0 22.2246H40.6154C40.6154 23.2442 39.7888 24.0708 38.7692 24.0708H1.84615C0.826552 24.0708 0 23.2442 0 22.2246Z" fill="#B33639"/>
<path d="M0 1.91647C0 0.896865 0.826551 0.0703125 1.84615 0.0703125L16.6154 0.0703125V12.9934H0L0 1.91647Z" fill="#001B7A"/>
<path d="M2.0305 0.807617L2.30434 1.43185L2.95358 1.51279L2.47358 1.97952L2.60099 2.65377L2.0305 2.318L1.46001 2.65377L1.58742 1.97952L1.10742 1.51279L1.75666 1.43185L2.0305 0.807617Z" fill="white"/>
<path d="M5.35276 0.807617L5.6266 1.43185L6.27584 1.51279L5.79584 1.97952L5.92326 2.65377L5.35276 2.318L4.78227 2.65377L4.90969 1.97952L4.42969 1.51279L5.07893 1.43185L5.35276 0.807617Z" fill="white"/>
<path d="M8.67601 0.807617L8.94984 1.43185L9.59908 1.51279L9.11908 1.97952L9.2465 2.65377L8.67601 2.318L8.10551 2.65377L8.23293 1.97952L7.75293 1.51279L8.40217 1.43185L8.67601 0.807617Z" fill="white"/>
<path d="M12.0002 0.807617L12.2741 1.43185L12.9233 1.51279L12.4433 1.97952L12.5707 2.65377L12.0002 2.318L11.4297 2.65377L11.5571 1.97952L11.0771 1.51279L11.7264 1.43185L12.0002 0.807617Z" fill="white"/>
<path d="M15.3225 0.807617L15.5963 1.43185L16.2456 1.51279L15.7656 1.97952L15.893 2.65377L15.3225 2.318L14.752 2.65377L14.8794 1.97952L14.3994 1.51279L15.0487 1.43185L15.3225 0.807617Z" fill="white"/>
<path d="M1.84593 3.94629L2.11977 4.57052L2.76901 4.65146L2.28901 5.11819L2.41642 5.79244L1.84593 5.45667L1.27544 5.79244L1.40285 5.11819L0.922852 4.65146L1.57209 4.57052L1.84593 3.94629Z" fill="white"/>
<path d="M5.16819 3.94629L5.44203 4.57052L6.09127 4.65146L5.61127 5.11819L5.73869 5.79244L5.16819 5.45667L4.5977 5.79244L4.72512 5.11819L4.24512 4.65146L4.89436 4.57052L5.16819 3.94629Z" fill="white"/>
<path d="M8.49241 3.94629L8.76625 4.57052L9.41549 4.65146L8.93549 5.11819L9.06291 5.79244L8.49241 5.45667L7.92192 5.79244L8.04934 5.11819L7.56934 4.65146L8.21858 4.57052L8.49241 3.94629Z" fill="white"/>
<path d="M11.8157 3.94629L12.0895 4.57052L12.7387 4.65146L12.2587 5.11819L12.3861 5.79244L11.8157 5.45667L11.2452 5.79244L11.3726 5.11819L10.8926 4.65146L11.5418 4.57052L11.8157 3.94629Z" fill="white"/>
<path d="M14.7678 3.94629L15.0416 4.57052L15.6909 4.65146L15.2109 5.11819L15.3383 5.79244L14.7678 5.45667L14.1973 5.79244L14.3247 5.11819L13.8447 4.65146L14.494 4.57052L14.7678 3.94629Z" fill="white"/>
<path d="M1.84593 10.2227L2.11977 10.8469L2.76901 10.9278L2.28901 11.3946L2.41642 12.0688L1.84593 11.733L1.27544 12.0688L1.40285 11.3946L0.922852 10.9278L1.57209 10.8469L1.84593 10.2227Z" fill="white"/>
<path d="M5.16819 10.2227L5.44203 10.8469L6.09127 10.9278L5.61127 11.3946L5.73869 12.0688L5.16819 11.733L4.5977 12.0688L4.72512 11.3946L4.24512 10.9278L4.89436 10.8469L5.16819 10.2227Z" fill="white"/>
<path d="M8.49241 10.2227L8.76625 10.8469L9.41549 10.9278L8.93549 11.3946L9.06291 12.0688L8.49241 11.733L7.92192 12.0688L8.04934 11.3946L7.56934 10.9278L8.21858 10.8469L8.49241 10.2227Z" fill="white"/>
<path d="M11.8157 10.2227L12.0895 10.8469L12.7387 10.9278L12.2587 11.3946L12.3861 12.0688L11.8157 11.733L11.2452 12.0688L11.3726 11.3946L10.8926 10.9278L11.5418 10.8469L11.8157 10.2227Z" fill="white"/>
<path d="M14.7678 10.2227L15.0416 10.8469L15.6909 10.9278L15.2109 11.3946L15.3383 12.0688L14.7678 11.733L14.1973 12.0688L14.3247 11.3946L13.8447 10.9278L14.494 10.8469L14.7678 10.2227Z" fill="white"/>
<path d="M2.0305 7.08398L2.30434 7.70821L2.95358 7.78915L2.47358 8.25589L2.60099 8.93014L2.0305 8.59437L1.46001 8.93014L1.58742 8.25589L1.10742 7.78915L1.75666 7.70821L2.0305 7.08398Z" fill="white"/>
<path d="M5.35276 7.08398L5.6266 7.70821L6.27584 7.78915L5.79584 8.25589L5.92326 8.93014L5.35276 8.59437L4.78227 8.93014L4.90969 8.25589L4.42969 7.78915L5.07893 7.70821L5.35276 7.08398Z" fill="white"/>
<path d="M8.67601 7.08398L8.94984 7.70821L9.59908 7.78915L9.11908 8.25589L9.2465 8.93014L8.67601 8.59437L8.10551 8.93014L8.23293 8.25589L7.75293 7.78915L8.40217 7.70821L8.67601 7.08398Z" fill="white"/>
<path d="M12.0002 7.08398L12.2741 7.70821L12.9233 7.78915L12.4433 8.25589L12.5707 8.93014L12.0002 8.59437L11.4297 8.93014L11.5571 8.25589L11.0771 7.78915L11.7264 7.70821L12.0002 7.08398Z" fill="white"/>
<path d="M14.9534 7.08398L15.2272 7.70821L15.8764 7.78915L15.3964 8.25589L15.5238 8.93014L14.9534 8.59437L14.3829 8.93014L14.5103 8.25589L14.0303 7.78915L14.6795 7.70821L14.9534 7.08398Z" fill="white"/>
</g>
</g>
<defs>
<clipPath id="clip0_1310_32360">
<rect y="0.0703125" width="24" height="24" rx="12" fill="white"/>
</clipPath>
<clipPath id="clip1_1310_32360">
<rect width="40.6154" height="24" fill="white" transform="translate(0 0.0703125)"/>
</clipPath>
</defs>
</svg>
