<svg width="198" height="45" viewBox="0 0 198 45" fill="none" xmlns="http://www.w3.org/2000/svg">
<g clip-path="url(#clip0_1310_32278)">
<path d="M79.2532 15.3237L77.2935 14.3293L71.5607 25.7658L65.8279 14.3293L63.8682 15.3237L71.5607 30.6212L79.2532 15.3237ZM97.0349 20.1207L97.0057 19.9745C96.6255 18.7752 95.9821 17.693 95.0752 16.7862C93.8176 15.5285 92.2089 14.7681 90.4539 14.5633H90.3369C90.1028 14.5341 89.869 14.5048 89.6056 14.5048C87.5289 14.5048 85.5986 15.3237 84.1362 16.7862C82.6737 18.2487 81.8839 20.1791 81.8839 22.2558C81.8839 24.3033 82.6737 26.2338 84.1362 27.6962C85.5986 29.1587 87.5289 29.9483 89.5764 29.9777H89.6934C90.5416 29.9483 91.4191 29.8021 92.2381 29.4805C94.1978 28.7785 95.7188 27.3452 96.5963 25.4733C96.7425 25.1223 96.8887 24.7713 97.0057 24.4203L94.8706 23.8353C94.578 24.8297 93.993 25.7073 93.2326 26.38C92.7061 26.8188 92.1211 27.1698 91.4777 27.433C88.816 28.3983 85.8618 27.199 84.6334 24.6835L84.5748 24.5665C84.604 24.5959 84.6334 24.6251 84.6334 24.6835L93.6421 21.3492L94.8706 20.9104L96.8009 20.2085L97.0349 20.1207ZM84.0776 22.4898V22.6068L84.0484 22.4898C83.9606 20.1499 85.3646 17.927 87.6459 17.0788C88.6698 16.6986 89.7226 16.64 90.7172 16.8448C92.0041 17.1372 93.1448 17.8392 93.9346 18.863L84.0776 22.4898ZM112.616 23.4259C112.236 22.8408 111.68 22.3436 110.978 21.9926C109.808 21.3492 108.346 21.0859 106.942 20.8227C105.801 20.6179 104.719 20.4131 103.987 20.0621C103.461 19.8281 103.168 19.5357 103.168 18.9507V18.8923C103.168 18.0148 103.929 17.6638 104.192 17.5174C104.923 17.0788 106.006 16.8448 107.117 16.8448C108.229 16.8448 109.281 17.0788 109.983 17.5174C110.247 17.6638 110.802 18.1024 111.007 19.0093L113.142 18.4242C112.967 17.2836 112.236 16.289 111.095 15.6163C110.013 15.0021 108.609 14.6803 107.117 14.6803C105.596 14.6803 104.192 15.0021 103.11 15.6163C101.94 16.289 101.121 17.576 101.121 18.9215C101.121 19.6819 101.296 20.3255 101.706 20.8812C102.057 21.3492 102.379 21.7294 103.022 22.0218C104.017 22.5192 105.304 22.753 106.561 22.9871C109.662 23.5429 111.124 24.0109 111.124 25.7658C111.066 26.5848 110.364 26.9942 110.1 27.1404C109.369 27.55 108.287 27.784 107.176 27.784C106.093 27.784 105.04 27.55 104.309 27.1404C104.046 26.9942 103.49 26.614 103.227 25.6488L101.15 26.2046C101.326 27.3452 102.028 28.3397 103.227 29.0125C104.28 29.6267 105.684 29.9777 107.176 29.9777C108.697 29.9777 110.1 29.6267 111.183 29.0125C112.557 28.252 113.289 27.082 113.289 25.7073V25.678C113.289 24.8005 113.055 24.0401 112.616 23.4259ZM118.091 29.3341L118.12 30.0069L120.255 29.5389V16.3768L118.091 15.8795V29.3341ZM120.723 9.9712C120.723 9.15222 120.05 8.47949 119.202 8.47949C118.354 8.47949 117.681 9.15222 117.681 9.9712C117.681 10.8194 118.354 11.4922 119.202 11.4922C120.05 11.4922 120.723 10.8194 120.723 9.9712Z" fill="#3BB75E"/>
<path d="M137.72 23.8374C137.047 26.0897 134.942 27.7276 132.485 27.7276C129.472 27.7276 127.015 25.2707 127.015 22.2579C127.015 19.2454 129.472 16.7883 132.485 16.7883C134.912 16.7883 136.989 18.3972 137.691 20.5908L139.826 20.0058C139.475 18.8358 138.832 17.7243 137.925 16.8177C136.462 15.3844 134.532 14.5654 132.485 14.5654C130.437 14.5654 128.507 15.3844 127.073 16.8177C125.611 18.2802 124.821 20.2106 124.821 22.2579C124.821 24.3054 125.611 26.2359 127.073 27.6691C128.507 29.1316 130.437 29.9213 132.485 29.9213C134.532 29.9213 136.462 29.1316 137.925 27.6691C138.832 26.7623 139.504 25.6509 139.855 24.4224L137.72 23.8374ZM157.33 14.7702V17.2857L156.891 16.7883C155.428 15.3259 153.469 14.5362 151.422 14.5362C149.345 14.5362 147.414 15.3259 145.952 16.7883C144.49 18.2508 143.7 20.1813 143.7 22.2579C143.7 24.3054 144.49 26.2651 145.952 27.7276C147.414 29.1608 149.345 29.9798 151.422 29.9798C153.469 29.9798 155.428 29.1608 156.891 27.7276L157.33 27.2303V30.1553L159.553 29.8628V15.3552L157.33 14.7702ZM151.422 27.7568C148.38 27.7568 145.923 25.2707 145.923 22.2579C145.923 19.216 148.38 16.7591 151.422 16.7591C154.435 16.7591 156.921 19.216 156.921 22.2579C156.921 25.2707 154.435 27.7568 151.422 27.7568ZM176.284 23.428C175.903 22.843 175.348 22.3457 174.646 21.9947C173.476 21.3513 172.013 21.0881 170.61 20.8249C169.469 20.6201 168.387 20.4153 167.655 20.0643C167.129 19.8302 166.837 19.5378 166.837 18.9528V18.8944C166.837 18.0169 167.597 17.6659 167.861 17.5196C168.591 17.0809 169.673 16.8469 170.785 16.8469C171.896 16.8469 172.95 17.0809 173.651 17.5196C173.915 17.6659 174.47 18.1046 174.675 19.0114L176.81 18.4264C176.635 17.2857 175.903 16.2911 174.762 15.6184C173.68 15.0042 172.276 14.6825 170.785 14.6825C169.263 14.6825 167.861 15.0042 166.777 15.6184C165.607 16.2911 164.789 17.5781 164.789 18.9236C164.789 19.684 164.964 20.3276 165.374 20.8833C165.724 21.3513 166.047 21.7315 166.691 22.0239C167.684 22.5213 168.971 22.7552 170.23 22.9892C173.329 23.545 174.793 24.013 174.793 25.7679C174.733 26.5869 174.032 26.9963 173.769 27.1426C173.037 27.5521 171.955 27.7861 170.843 27.7861C169.761 27.7861 168.708 27.5521 167.976 27.1426C167.713 26.9963 167.158 26.6161 166.894 25.6509L164.818 26.2067C164.994 27.3473 165.695 28.3418 166.894 29.0146C167.947 29.6288 169.352 29.9798 170.843 29.9798C172.364 29.9798 173.769 29.6288 174.85 29.0146C176.226 28.2542 176.956 27.0841 176.956 25.7095V25.6801C176.956 24.8026 176.722 24.0422 176.284 23.428ZM183.631 22.1117C183.747 19.1576 185.591 17.0809 188.573 17.0809C191.527 17.0809 193.37 19.1868 193.487 22.1117V30.2138L195.769 29.9213V22.3457C195.769 20.269 194.98 18.3094 193.516 16.8469C192.025 15.3844 190.65 14.8287 188.573 14.8287C186.263 14.8287 183.747 16.5837 183.631 16.7007V7.98438L181.349 8.56936V29.9213L183.631 30.2138V22.1117Z" fill="#043B56"/>
<path d="M52.6442 14.4696C46.8621 12.7274 41.997 13.7996 38.8181 19.215C36.7364 22.7638 37.1735 27.6981 40.62 31.1678L38.603 33.9982C35.8059 31.6677 33.9341 26.4478 35.299 21.7197C36.8319 16.4169 41.1726 13.1791 45.7876 12.7569C49.0782 12.4554 52.1924 13.3385 52.6442 14.4696Z" fill="#043B56"/>
<path d="M58.4249 3.51155C58.3 3.6201 58.3 3.60134 58.1926 3.58526C57.9901 3.54834 57.7939 3.48293 57.6098 3.39096C54.4462 1.95718 51.1161 1.22287 47.6625 1.39036C39.0338 1.80576 32.4084 5.65554 28.0577 13.2077C26.1551 16.5095 25.1809 20.2626 25.2379 24.0709C25.2808 29.278 26.676 34.2334 30.0034 38.3203C30.9434 39.4768 31.972 40.688 33.1617 41.6623C32.3842 42.9178 31.8001 43.6186 30.8212 44.9519C28.6593 41.3339 25.8529 38.4181 24.3557 34.6527C22.7872 30.7737 22.2091 26.5666 22.6731 22.4094C23.1389 17.8334 24.9044 13.4852 27.7624 9.87648C31.4509 5.17447 36.2112 2.15549 42.1046 0.93745C43.8651 0.571634 45.6497 0.319718 47.4435 0.381357C51.0276 0.504635 54.4798 1.25637 57.7011 2.88981C57.9831 3.03318 58.4249 3.37354 58.4249 3.51155Z" fill="#043B56"/>
<path d="M54.9706 10.9123C55.7737 11.6296 54.4594 10.9821 54.4594 10.9821C52.0448 9.86201 49.3771 9.4054 46.7291 9.65892C43.9751 9.88381 41.3455 10.9068 39.1597 12.6036C36.4762 14.6764 34.7003 17.3617 33.9081 20.6638C32.8735 24.9786 33.7047 28.9293 36.2929 32.5188C36.839 33.2765 37.5229 33.9078 38.1934 34.6682C37.4332 35.6435 36.8939 36.655 36.1243 37.4973C30.4284 32.5269 28.4222 22.5404 34.1931 14.9786C39.7512 7.70166 49.5129 7.0743 54.9706 10.9123Z" fill="#043B56"/>
<path d="M50.3098 17.6942C51.3348 18.7187 49.8611 18.0272 49.5168 17.9898C47.8876 17.8092 46.3215 17.8935 44.8129 18.7213C42.0811 20.2234 40.7133 24.0084 42.4669 27.0071C42.6224 27.2746 42.7953 27.5287 42.9949 27.8416L41.0066 30.6503C39.644 29.0743 38.9124 27.0514 38.9528 24.9698C38.9931 22.8882 39.8024 20.8949 41.2251 19.3727C43.6889 16.6857 47.9037 16.0745 50.3098 17.6942Z" fill="#043B56"/>
<path d="M56.7527 7.18428C57.6281 8.04836 56.3504 7.31825 56.1439 7.21643C53.2287 5.85921 50.0141 5.27116 46.8069 5.50839C43.0152 5.78837 39.5668 7.07443 36.5648 9.41881C33.1674 12.0713 30.8909 15.4981 29.9147 19.7045C28.5606 25.5267 29.7431 30.8049 33.4946 35.4937C34.1864 36.3591 34.9828 37.1146 35.8529 37.9292C35.1101 38.962 34.4291 39.8998 33.7452 40.8442C26.1204 34.3978 23.7192 21.7007 31.0342 12.3419C38.1134 3.28592 50.0114 2.76346 56.7527 7.18428Z" fill="#043B56"/>
<path d="M15.2235 15.7452C16.9467 18.2431 18.6593 20.749 20.4002 23.2346C20.7576 23.6993 20.9397 24.2743 20.9145 24.8591C20.827 26.8258 21.064 28.7723 21.4531 30.7039L21.2565 30.8045C14.2123 20.6269 7.17212 10.4492 0 0.0810442C1.45543 0.0810442 2.70082 0.102507 3.94487 0.0703125" fill="#3BB75E"/>
<path d="M22.0485 9.47843L24.0401 12.3791C23.3798 13.6158 22.8789 14.8913 22.2843 16.3503C18.5421 10.8986 14.8817 5.5662 11.1074 0.0703125C12.6262 0.0703125 13.9575 0.0703125 15.2876 0.0703125" fill="#3BB75E"/>
<path d="M26.6259 8.26936C25.3712 9.9196 25.1918 10.3532 24.418 11.4815L16.584 0.0823581C18.0662 0.0823581 19.3408 0.109126 20.6114 0.0703125" fill="#3BB75E"/>
<path d="M26.7329 0.222656C27.3307 1.04876 27.8051 1.62058 28.3076 2.35652C28.8692 3.17455 29.4215 3.99931 29.9737 4.81734C28.9631 5.57079 28.1951 6.49511 27.261 7.37368L22.3662 0.240147" fill="#3BB75E"/>
<path d="M17.6672 11.4269C18.9289 13.2741 20.1745 15.132 21.4562 16.9632C21.7339 17.3653 21.8354 17.6736 21.6911 18.1816C21.3041 19.5582 20.997 20.9591 20.7219 22.4363L5.47656 0.146839C6.95718 0.012791 8.31362 0.0959007 9.66474 0.0945601" fill="#3BB75E"/>
</g>
<defs>
<clipPath id="clip0_1310_32278">
<rect width="197.794" height="44.8841" fill="white" transform="translate(0 0.0703125)"/>
</clipPath>
</defs>
</svg>
